<?xml version="1.0" encoding="UTF-8" standalone="no"?><!DOCTYPE svg PUBLIC "-//W3C//DTD SVG 1.1//EN" "http://www.w3.org/Graphics/SVG/1.1/DTD/svg11.dtd"><svg width="100%" height="100%" viewBox="0 0 250 30" version="1.1" xmlns="http://www.w3.org/2000/svg" xmlns:xlink="http://www.w3.org/1999/xlink" xml:space="preserve" style="fill-rule:evenodd;clip-rule:evenodd;stroke-linejoin:round;stroke-miterlimit:1.41421;"><g><path d="M19.634,18.644l-1.59,0c-0.63,2.94 -2.79,4.8 -5.67,4.8c-1.53,0 -2.97,-0.57 -4.05,-1.65c-1.53,-1.53 -1.65,-3.18 -1.65,-7.77c0,-4.59 0.12,-6.24 1.65,-7.77c1.08,-1.08 2.52,-1.65 4.05,-1.65c2.88,0 4.98,1.86 5.61,4.8l1.65,0c-0.69,-3.87 -3.45,-6.24 -7.26,-6.24c-2.01,0 -3.93,0.78 -5.34,2.19c-1.95,1.95 -1.98,3.84 -1.98,8.67c0,4.83 0.03,6.72 1.98,8.67c1.41,1.41 3.33,2.19 5.34,2.19c3.75,0 6.57,-2.37 7.26,-6.24Z" style="fill:#165134;fill-rule:nonzero;"/><path d="M39.014,14.024c0,-4.83 -0.03,-6.72 -1.98,-8.67c-1.41,-1.41 -3.33,-2.19 -5.34,-2.19c-2.01,0 -3.93,0.78 -5.34,2.19c-1.95,1.95 -1.98,3.84 -1.98,8.67c0,4.83 0.03,6.72 1.98,8.67c1.41,1.41 3.33,2.19 5.34,2.19c2.01,0 3.93,-0.78 5.34,-2.19c1.95,-1.95 1.98,-3.84 1.98,-8.67Zm-1.62,0c0,4.59 -0.12,6.24 -1.65,7.77c-1.08,1.08 -2.52,1.65 -4.05,1.65c-1.53,0 -2.97,-0.57 -4.05,-1.65c-1.53,-1.53 -1.65,-3.18 -1.65,-7.77c0,-4.59 0.12,-6.24 1.65,-7.77c1.08,-1.08 2.52,-1.65 4.05,-1.65c1.53,0 2.97,0.57 4.05,1.65c1.53,1.53 1.65,3.18 1.65,7.77Z" style="fill:#165134;fill-rule:nonzero;"/><path d="M59.054,9.494c0,-3.9 -2.76,-6.15 -6.45,-6.15l-7.83,0l0,21.36l1.62,0l0,-9.06l6.21,0c3.69,0 6.45,-2.25 6.45,-6.15Zm-1.62,0c0,3.21 -2.07,4.71 -5.01,4.71l-6.03,0l0,-9.42l6.03,0c2.94,0 5.01,1.5 5.01,4.71Z" style="fill:#165134;fill-rule:nonzero;"/><rect x="63.704" y="3.344" width="1.62" height="21.36" style="fill:#165134;fill-rule:nonzero;"/><path d="M83.894,4.784l0,-1.44l-14.37,0l0,1.44l6.36,0l0,19.92l1.62,0l0,-19.92l6.39,0Z" style="fill:#165134;fill-rule:nonzero;"/><path d="M102.464,24.704l0,-21.36l-1.62,0l0,9.87l-11.13,0l0,-9.87l-1.62,0l0,21.36l1.62,0l0,-10.05l11.13,0l0,10.05l1.62,0Z" style="fill:#165134;fill-rule:nonzero;"/><path d="M122.864,14.024c0,-4.83 -0.03,-6.72 -1.98,-8.67c-1.41,-1.41 -3.33,-2.19 -5.34,-2.19c-2.01,0 -3.93,0.78 -5.34,2.19c-1.95,1.95 -1.98,3.84 -1.98,8.67c0,4.83 0.03,6.72 1.98,8.67c1.41,1.41 3.33,2.19 5.34,2.19c2.01,0 3.93,-0.78 5.34,-2.19c1.95,-1.95 1.98,-3.84 1.98,-8.67Zm-1.62,0c0,4.59 -0.12,6.24 -1.65,7.77c-1.08,1.08 -2.52,1.65 -4.05,1.65c-1.53,0 -2.97,-0.57 -4.05,-1.65c-1.53,-1.53 -1.65,-3.18 -1.65,-7.77c0,-4.59 0.12,-6.24 1.65,-7.77c1.08,-1.08 2.52,-1.65 4.05,-1.65c1.53,0 2.97,0.57 4.05,1.65c1.53,1.53 1.65,3.18 1.65,7.77Z" style="fill:#165134;fill-rule:nonzero;"/><path d="M143.114,24.704l-5.16,-9.87c3,-0.51 4.92,-2.58 4.92,-5.76c0,-3.72 -2.64,-5.73 -6.12,-5.73l-8.13,0l0,21.36l1.62,0l0,-9.84l5.88,0l5.1,9.84l1.89,0Zm-1.86,-15.6c0,2.94 -1.98,4.32 -4.71,4.32l-6.3,0l0,-8.64l6.3,0c2.73,0 4.71,1.38 4.71,4.32Z" style="fill:#165134;fill-rule:nonzero;"/><path d="M163.904,24.704l0,-21.36l-1.62,0l0,18.51l-12.33,-18.51l-1.62,0l0,21.36l1.62,0l0,-18.57l12.33,18.57l1.62,0Z" style="fill:#165134;fill-rule:nonzero;"/><path d="M183.464,24.704l0,-1.44l-11.34,0l0,-8.61l9.66,0l0,-1.44l-9.66,0l0,-8.43l11.34,0l0,-1.44l-12.96,0l0,21.36l12.96,0Z" style="fill:#165134;fill-rule:nonzero;"/><path d="M201.494,24.704l0,-3.72l-9.69,0l0,-17.64l-4.17,0l0,21.36l13.86,0Z" style="fill:#165134;fill-rule:nonzero;"/><path d="M221.384,24.704l-7.8,-21.36l-3.27,0l-7.77,21.36l4.35,0l1.29,-3.78l7.59,0l1.26,3.78l4.35,0Zm-6.72,-7.29l-5.31,0l2.7,-7.77l2.61,7.77Z" style="fill:#165134;fill-rule:nonzero;"/><path d="M245.564,3.344l-4.35,0l-3.33,13.47l-3.9,-13.47l-3.12,0l-3.9,13.47l-3.3,-13.47l-4.35,0l5.7,21.36l3.48,0l3.93,-12.96l3.93,12.96l3.48,0l5.73,-21.36Z" style="fill:#165134;fill-rule:nonzero;"/></g></svg>